<?xml version="1.0" encoding="utf-8"?>
<!-- Generator: Adobe Illustrator 27.7.0, SVG Export Plug-In . SVG Version: 6.00 Build 0)  -->
<svg version="1.1" id="레이어_1" xmlns="http://www.w3.org/2000/svg" xmlns:xlink="http://www.w3.org/1999/xlink" x="0px"
	 y="0px" viewBox="0 0 1000 1000" style="enable-background:new 0 0 1000 1000;" xml:space="preserve">
<style type="text/css">
	.st0{fill:#001224;}
</style>
<path class="st0" d="M44.6,31.7c0,6-7.5,13.1-17.1,14.1v-5.3c4.2-0.4,7.6-1.8,10-4.2c2.4-2.4,3.7-5.6,3.7-9.2h-5.4
	c0,1.5-0.4,3.7-2.1,5.4c-1.4,1.4-3.5,2.3-6.2,2.6v-6h-2.7c-7,0-12.5-5.7-12.5-12.9c0-5.6,4.6-10.6,9.8-10.7c3.6-0.1,5.8,1.5,7.1,2.7
	c1.5,1.5,2.4,3.6,2.4,5.4c-0.1,3.7-2.4,6.7-5.2,6.7c0,0,0,0,0,0c-4,0-5.1-2.9-5.1-4.6h-5.4c0,4.8,3.7,10,10.5,10c0,0,0,0,0.1,0
	c5.8,0,10.6-5.4,10.7-12.1c0-3.4-1.4-6.8-4-9.3C30.2,1.5,26.3-0.1,22,0C13.8,0.1,6.8,7.5,6.8,16.1c0,9.3,6.5,16.8,15.2,18.2v5.2
	c-8.8-1.1-16.5-7.3-16.5-13.7H0c0,9.5,10,18,22,19.2v8h5.4v-1.7c5.5-0.5,10.7-2.5,14.9-5.9c4.9-3.9,7.6-8.9,7.6-13.7H44.6z"/>
</svg>
